<svg width="242" height="258" viewBox="0 0 242 258" fill="none" xmlns="http://www.w3.org/2000/svg">
<path fill-rule="evenodd" clip-rule="evenodd" d="M118 139.531V160C118 161.657 121.343 163 123 163H131C132.657 163 136 161.657 136 160V121.309L161 96L242 175L160 258L80 178L118 139.531ZM33 122V122.5C33 123.651 34.6131 124.65 36.1535 125.154L82 171H0V89L33 122ZM157 135H164C165.657 135 169 136.343 169 138V217C169 218.657 165.657 220 164 220H157C155.343 220 152 218.657 152 217V138C152 136.343 155.343 135 157 135Z" fill="#000201"/>
<path fill-rule="evenodd" clip-rule="evenodd" d="M91 0L171 79L136 114.652V92C136 91.3431 136.343 91 137 91H156C157.657 91 159 87.6569 159 86V82C159 80.3431 157.657 77 156 77H101C100.343 77 100 76.6569 100 76V48C100 46.3431 96.6569 45 95 45H88C86.3431 45 83 46.3431 83 48V77C83 77.6569 82.6569 78 82 78H51C50.3431 78 50 77.6569 50 77V48C50 46.7784 48.1825 45.7273 46.5635 45.2594L91 0ZM33 59.0741L10 82.5L33 104.929V59.0741ZM50 121.506L90.5 161L118 132.988V92C118 91.3431 117.657 91 117 91H101C100.343 91 100 91.3431 100 92V127C100 128.657 96.6569 130 95 130H88C86.3431 130 83 128.657 83 127V94C83 93.3431 82.6569 93 82 93H51C50.3431 93 50 93.3431 50 94V121.506ZM71 258V186L143 258H71Z" fill="#FE0000"/>
</svg>
