<?xml version="1.0" encoding="UTF-8" standalone="no"?>
<!DOCTYPE svg PUBLIC "-//W3C//DTD SVG 1.1//EN" "http://www.w3.org/Graphics/SVG/1.1/DTD/svg11.dtd">
<svg width="100%" height="100%" viewBox="0 0 242 258" version="1.1" xmlns="http://www.w3.org/2000/svg" xmlns:xlink="http://www.w3.org/1999/xlink" xml:space="preserve" xmlns:serif="http://www.serif.com/" style="fill-rule:evenodd;clip-rule:evenodd;stroke-linejoin:round;stroke-miterlimit:2;">
    <g transform="matrix(0.272987,0,0,0.272987,-36.65,-21.5387)">
        <g transform="matrix(0.1,0,0,-0.1,0,1024)">
            <path d="M4415,9338C4355,9276 4191,9106 4051,8960C3910,8814 3741,8639 3674,8570C3545,8436 3336,8220 3120,7996C3046,7919 2917,7786 2835,7700C2752,7615 2626,7484 2555,7411C2336,7184 2137,6978 1744,6572C1679,6504 1624,6443 1622,6436C1620,6428 1625,6416 1633,6409C1696,6347 2167,5891 2210,5850C2240,5821 2375,5691 2509,5561C2643,5431 2769,5310 2789,5291C2809,5272 2940,5145 3080,5009C3221,4873 3349,4749 3365,4734C3382,4720 3467,4637 3556,4551C4208,3916 4502,3635 4515,3632C4521,3630 4542,3646 4560,3667C4578,3688 4661,3775 4744,3860C4951,4072 5399,4536 5429,4569C5442,4583 5523,4667 5608,4755C5694,4843 5811,4965 5869,5025C6135,5300 6507,5685 6524,5701C6548,5724 6540,5736 6512,5721C6482,5705 6413,5708 6373,5727C6347,5739 6321,5769 6275,5839C6202,5952 6034,6213 5964,6322L5915,6400L5760,6400L5760,6125C5760,5900 5757,5843 5745,5813C5686,5672 5479,5676 5431,5819C5423,5843 5420,6056 5420,6554C5420,7342 5417,7306 5496,7366L5533,7395L5849,7395C6120,7395 6174,7392 6229,7377C6476,7309 6600,7149 6600,6900C6600,6756 6567,6660 6487,6572C6441,6522 6358,6465 6316,6454C6302,6451 6288,6445 6285,6441C6282,6435 6336,6348 6410,6240C6415,6232 6464,6160 6518,6080L6615,5935L6615,5798L6764,5952C6845,6036 6964,6159 7028,6225C7091,6291 7209,6412 7289,6494L7434,6642L7308,6764C7238,6830 7137,6928 7083,6980C7029,7032 6870,7186 6730,7322C6590,7457 6453,7590 6425,7615C6363,7674 5937,8085 5735,8281C5653,8362 5565,8447 5540,8470C5474,8533 5022,8970 4831,9155C4741,9243 4659,9322 4650,9330C4640,9338 4608,9369 4578,9398L4524,9451L4415,9338ZM2797,7404C2816,7395 2843,7371 2858,7352L2885,7317L2888,7018L2891,6720L3138,6722L3385,6725L3395,7329L3425,7361C3506,7446 3645,7436 3698,7341L3720,7302L3718,6553L3715,5805L3692,5775C3614,5675 3443,5695 3399,5808C3394,5821 3390,5962 3390,6121L3390,6410L2891,6410L2888,6111C2885,5827 2884,5810 2864,5784C2823,5729 2794,5715 2720,5715C2646,5715 2617,5729 2576,5784C2555,5811 2555,5820 2555,6564L2555,7317L2582,7352C2631,7417 2722,7439 2797,7404ZM4684,7386C4720,7359 4752,7299 4790,7190C4853,7007 5025,6502 5055,6415C5074,6360 5121,6223 5160,6110C5231,5907 5242,5851 5222,5800C5188,5713 5059,5682 4969,5738C4919,5770 4906,5792 4853,5945L4815,6055L4317,6055L4273,5923C4215,5750 4178,5710 4074,5710C4017,5710 3955,5741 3930,5783C3908,5819 3904,5892 3921,5937C3931,5962 4093,6434 4185,6705C4242,6875 4377,7263 4390,7295C4408,7341 4445,7385 4482,7404C4533,7430 4639,7421 4684,7386Z" style="fill:rgb(255,11,3);fill-rule:nonzero;"/>
        </g>
        <g transform="matrix(0.1,0,0,-0.1,0,1024)">
            <path d="M4551,6836C4545,6795 4510,6668 4475,6554C4439,6439 4410,6342 4410,6338C4410,6334 4480,6330 4565,6330C4675,6330 4720,6333 4720,6342C4720,6348 4697,6432 4669,6529C4609,6733 4580,6846 4580,6877C4580,6928 4563,6903 4551,6836Z" style="fill:rgb(255,11,3);fill-rule:nonzero;"/>
        </g>
        <g transform="matrix(0.1,0,0,-0.1,0,1024)">
            <path d="M5760,7100L5760,6697L5928,6703C6106,6709 6156,6720 6209,6761C6267,6807 6283,6922 6241,6996C6197,7075 6111,7100 5888,7100L5760,7100Z" style="fill:rgb(255,11,3);fill-rule:nonzero;"/>
        </g>
        <g transform="matrix(0.1,0,0,-0.1,0,1024)">
            <path d="M1420,6244L1420,3360L2850,3360C3987,3360 4280,3363 4280,3373C4280,3379 3636,4028 2850,4814L1420,6244Z" style="fill:white;fill-rule:nonzero;"/>
        </g>
        <g transform="matrix(0.1,0,0,-0.1,0,1024)">
            <path d="M7255,6060L4365,3170L5808,1728L7250,285L8690,1725C9482,2517 10130,3169 10130,3175C10130,3181 9483,3832 8692,4623L7255,6060ZM7012,4168C7066,4152 7117,4093 7125,4038C7128,4014 7130,3671 7128,3274L7125,2554L7100,2517C7065,2465 7003,2436 6939,2442C6883,2448 6846,2470 6813,2520L6790,2553L6790,4067L6813,4101C6837,4138 6910,4180 6948,4180C6962,4180 6990,4175 7012,4168ZM7653,4169C7674,4164 7704,4147 7721,4132C7740,4114 7824,3959 7964,3680C8082,3447 8182,3254 8187,3253C8191,3251 8294,3447 8415,3687C8655,4164 8653,4162 8746,4176C8847,4191 8942,4128 8955,4038C8958,4014 8960,3671 8958,3275L8955,2555L8931,2516C8886,2444 8791,2421 8710,2463C8621,2508 8626,2484 8620,2973C8617,3211 8612,3401 8609,3395C8605,3390 8543,3268 8470,3125C8397,2982 8328,2854 8316,2841C8287,2809 8239,2790 8185,2790C8124,2790 8078,2811 8048,2851C8034,2870 7965,3001 7894,3142C7823,3283 7764,3397 7762,3396C7761,3394 7759,3215 7759,2999C7760,2782 7756,2588 7751,2566C7734,2494 7659,2440 7576,2440C7532,2440 7468,2475 7443,2513L7420,2546L7420,4067L7443,4101C7469,4140 7540,4180 7585,4180C7601,4180 7632,4175 7653,4169ZM6471,4149C6591,4113 6633,3986 6552,3905C6505,3857 6473,3850 6315,3850L6170,3850L6170,3209C6170,2496 6173,2528 6102,2473C6070,2449 6056,2445 6000,2445C5944,2445 5930,2449 5898,2473C5827,2528 5830,2496 5830,3208L5830,3849L5672,3852C5523,3855 5511,3856 5478,3880C5371,3953 5398,4099 5527,4145C5577,4164 6412,4166 6471,4149Z" style="fill:white;fill-rule:nonzero;"/>
        </g>
        <g transform="matrix(0.1,0,0,-0.1,0,1024)">
            <path d="M4010,1507L4010,0L7024,0L6989,36C6934,93 4052,2975 4030,2995C4010,3013 4010,3011 4010,1507Z" style="fill:rgb(255,11,3);fill-rule:nonzero;"/>
        </g>
    </g>
</svg>
